<?xml version="1.0" encoding="utf-8"?>
<!-- Generator: Adobe Illustrator 27.9.0, SVG Export Plug-In . SVG Version: 6.00 Build 0)  -->
<svg version="1.1" id="Layer_1" xmlns="http://www.w3.org/2000/svg" xmlns:xlink="http://www.w3.org/1999/xlink" x="0px" y="0px"
	 viewBox="0 0 512.5 90.2" style="enable-background:new 0 0 512.5 90.2;" xml:space="preserve">
<style type="text/css">
	.st0{fill:#9F1C1F;}
</style>
<g>
	<g>
		<path class="st0" d="M126.5,58.9l-22.6-45.3c-0.6-1.3-1.3-2.4-2.1-3.5c-6-8.4-14.4-7.3-19.8,3.5l-5.9,11.9
			c-4.3,8.5-10.4,11-15.8,7.5c-2.2-1.5-4.3-3.9-6.1-7.5l-5.9-11.9c-0.6-1.3-1.3-2.4-2.1-3.5c-6-8.4-14.4-7.3-19.8,3.5L3.8,58.9
			c-5.4,10.8-4.9,19.9,0.9,21.6c0.6,0.2,1.3,0.3,2.1,0.3c7.7,0,17.7-7.5,22.3-16.7c3.9-7.7,10.6-7.3,16.2,0.1c1.1,1.4,2.1,3.1,3.1,5
			l5.9,11.9c1.8,3.5,3.8,6,6.1,7.5c5.4,3.5,11.5,1.1,15.8-7.5L82,69.3c5.8-11.6,14-14.2,18.7-6.2c0.2,0.3,0.4,0.6,0.5,1
			c2,3.9,4.9,7.6,8.3,10.4c4.5,3.8,9.6,6.3,14,6.3C131.2,80.8,132.5,70.9,126.5,58.9z"/>
	</g>
	<path d="M137.6,41.9c0-7.1-0.2-13.1-0.4-18h16.2l0.8,6.6h0.4c1.9-2.7,6.5-7.8,15.7-7.8c6.8,0,12,3.1,14.3,8.5h0.2
		c2-2.8,4.5-4.8,7.3-6.3c2.7-1.4,5.8-2.1,9.3-2.1c11.4,0,17.9,8.3,17.9,23v31h-18.8V48.5c0-6.5-1.9-10.3-6.2-10.3
		c-3.1,0-5,1.9-5.9,4.5c-0.4,1.1-0.5,2.7-0.5,3.9v30H169V48c0-5.9-1.8-9.8-6.2-9.8c-3.4,0-5.2,2.6-5.9,4.3c-0.4,1.3-0.5,2.7-0.5,4
		v30.2h-18.8V41.9z"/>
	<path d="M275.7,63.7c0,5.3,0.3,10.2,0.9,12.9h-17.5l-1-4.6h-0.4c-3.6,4.2-8.9,5.8-14.6,5.8c-10.8,0-17.5-7.8-17.5-16.6
		c0-14.2,12.8-20.5,30.7-20.5v-0.4c0-2.1-1.6-4.5-8.7-4.5c-5.6,0-11.4,1.9-14.9,3.9l-3.3-12.1c3.3-1.8,10.9-4.8,21.9-4.8
		c18.1,0,24.5,10.1,24.5,23.3V63.7z M256.9,52.5c-7.9,0-12.3,2.1-12.3,6.9c0,3.3,2.1,5,5.5,5c2.8,0,5.7-1.9,6.7-4.8
		c0.2-0.9,0.2-1.8,0.2-2.8V52.5z"/>
	<path d="M293,18.4c-6,0-9.8-4.1-9.8-9.1c0-5.4,3.9-9.2,9.9-9.2c6,0,9.8,3.9,9.9,9.2c0,5-3.9,9.1-9.9,9.1H293z M283.4,76.6V23.8
		h19.4v52.8H283.4z"/>
	<path d="M311.2,41.9c0-7.1-0.2-13.1-0.4-18h16.7l0.9,6.8h0.3c1.9-2.8,7.1-7.9,15.9-7.9c12.3,0,19.1,8.4,19.1,22.9v31.1h-19.4V47.9
		c0-6.1-2-9.7-6.8-9.7c-3.8,0-5.5,2.6-6.3,4.6c-0.4,1-0.5,2.5-0.5,3.9v29.9h-19.4V41.9z"/>
	<path d="M386.3,13.7v11.4h16.3v4.2h-16.3v32.9c0,6.3,1.9,11.2,8.3,11.2c3.1,0,5.3-0.4,6.8-1l0.7,4.1c-1.8,0.8-4.5,1.4-7.9,1.4
		c-4.1,0-7.4-1.3-9.5-3.9c-2.6-2.9-3.4-7.6-3.4-12.4V29.3h-9.4v-4.2h9.4v-9.8L386.3,13.7z"/>
	<path d="M415.1,50.9c0,15,9.5,22.5,21.8,22.5c8.9,0,13.2-1.7,16.5-3.2l1.4,4.2c-1.8,0.9-7.6,3.5-18.5,3.5
		c-16,0-26.4-10.8-26.4-25.8c0-17.5,11.2-28.3,25.8-28.3c19.1,0,22.4,16.9,22.4,23.8c0,1.6,0,2.4-0.2,3.2H415.1z M452.6,46.7
		c0.1-5.4-2.1-18.6-17.6-18.6c-13.1,0-18.6,10.7-19.6,18.6H452.6z"/>
	<path d="M512.1,74.2c-2.3,1.1-8.5,3.8-17.3,3.8c-16.4,0-27.3-11.4-27.3-26.3c0-17.2,12.8-27.8,29.3-27.8c7.6,0,13.5,2.1,15.7,3.6
		l-1.9,4.3c-3-1.7-7.5-3.4-14.2-3.4c-15.3,0-23.6,10.1-23.6,22.6c0,13.4,9.7,22.4,22.8,22.4c7.4,0,12-2.1,15-3.4L512.1,74.2z"/>
</g>
</svg>
